v  0.5  0.5  0.5
v  0.5  0.5 -0.5
v -0.5  0.5 -0.5
v -0.5  0.5  0.5
v  0.5 -0.5  0.5
v -0.5 -0.5  0.5
v -0.5 -0.5 -0.5
v  0.5 -0.5 -0.5

vn  1  0  0   1
vn  0  1  0   2
vn  0  0  1   3
vn -1  0  0   4
vn  0 -1  0   5
vn  0  0 -1   6

vt 0    0.25
vt 0    0.5
vt 0.25 0
vt 0.25 0.25
vt 0.25 0.5
vt 0.25 0.75
vt 0.5  0
vt 0.5  0.25
vt 0.5  0.5
vt 0.5  0.75
vt 0.75 0.25
vt 0.75 0.5
vt 1    0.25
vt 1    0.5

f 1/8/2 2/9/2 3/5/2
f 3/5/2 4/4/2 1/8/2
f 1/8/1 5/11/1 8/12/1
f 8/12/1 2/9/1 1/8/1
f 2/9/6 8/10/6 7/6/6
f 7/6/6 3/5/6 2/9/6
f 3/5/4 7/2/4 6/1/4
f 6/1/4 4/4/4 3/5/4
f 4/4/3 6/3/3 5/7/3
f 5/7/3 1/8/3 4/4/3
f 7/14/5 8/12/5 5/11/5
f 5/11/5 6/13/5 7/14/5
